<?xml version="1.0" encoding="UTF-8"?>
<svg id="Camada_1" data-name="Camada 1" xmlns="http://www.w3.org/2000/svg" viewBox="0 0 1279 505">
  <defs>
    <style>
      .cls-1 {
        fill: #1d4f38;
      }

      .cls-2 {
        fill: #86cfb1;
      }
    </style>
  </defs>
  <path class="cls-1" d="M565.5,41.4c-1.2,3.6-4.4,8.6-6.2,12.6-12.8,21.4-27.1,42.1-40.4,63.2l-21.8,34.2c-7.3,11.8-14.5,23.9-22.6,35.1-15.7.6-31.7-.3-47.4-.3l-4.3-108.7c-.3-6.7-.7-13.4-.7-20s.4-13.2-.4-19.9c-6.9,17.1-10.6,36.1-15.2,54-8.3,31.3-16.5,62.7-24.5,94.1-7.6.1-15.2-.6-22.8-.9-7.8-.3-15.6-.1-23.4-.2,4.9-9.6,10.5-34.1,13.8-45.6l25.7-88.9c4.8-16.6,8.9-33.8,14.7-50.1,9.5,1.8,20.7.8,30.4.8,13.4,0,26.7.4,40.1.2-.3,17.4,1,34.9,1.6,52.3.9,25.7,1.5,51.5,3.5,77.1,4-11,12.5-21.2,18.8-31.1,17.1-26.7,35.1-52.9,52-79.8,2.6-4.1,8.8-12,9.5-16.4,8.2-.6,16.3,0,24.4.3,8.6.3,17.2,0,25.8.2,7,.1,14.1.6,21.1.3.3.5.5,1,.6,1.6.3,2.2-46.8,167.1-51.4,180.6-.3.8-.8,1.6-1.3,2.3-9.8,0-36.1.8-43.7-1.4"/>
  <path class="cls-1" d="M509,280.5c22.1-.8,47,1.4,64.7,16.1,9.6,8,15.7,19,16.8,31.4,1.5,17.2-3.1,33.7-14.3,46.9-16.4,19.3-38,27.2-62.6,29.2-20.5,1.8-46.1-2-62.5-14.8-10.1-7.8-17.1-18.4-18.6-31.2-2.1-17.2,3.3-35.7,14-49.3,15.2-19.2,39.3-25.7,62.5-28.3h0ZM510,378.8c10.7-.7,20.1-6.9,27.1-14.8,8-9,13.6-22.4,12.8-34.6-.4-6.8-3.4-13.2-8.6-17.7-7.9-6.8-18.6-7.5-28.5-6.9-13.5,3.2-23,8.3-30.5,20.4-5.7,9.3-10.4,22-7.7,33.1,1.7,6.7,6,12.3,11.9,15.9,6.8,4.1,15.6,5.7,23.5,4.5v.1Z"/>
  <path class="cls-1" d="M992.9,280.6c22.2-1.4,48.1,1.1,66,15.5,9.6,7.8,15.9,18.6,17.2,31,1.8,16.9-2.5,33.5-13.3,46.7-16.3,19.9-37.9,27.7-62.7,30.2-20.5,2.2-47.2-2.2-63.5-15.1-9.5-7.5-16.9-17.9-18.3-30.1-.1-1.1-.2-2.2-.3-3.3,0-1.1-.1-2.2-.1-3.3v-3.3c0-1.1,0-2.2.2-3.3,0-1.1.2-2.2.3-3.3s.3-2.2.5-3.3c.2-1.1.4-2.2.7-3.2.2-1.1.5-2.1.8-3.2s.6-2.1,1-3.2c.3-1,.7-2.1,1.1-3.1.4-1,.8-2,1.3-3.1.5-1,.9-2,1.4-3s1-2,1.6-2.9c.5-1,1.1-1.9,1.7-2.8.6-.9,1.2-1.9,1.8-2.8s1.3-1.8,2-2.7c14.7-18.5,38.1-25.8,60.7-28.4h-.1ZM995,379c11.6-.9,21.2-7.2,28.6-15.9,7.7-9,12.9-22.4,11.8-34.3-.6-6.6-3.6-12.9-8.7-17.2-7.9-6.6-18.4-7.4-28.2-6.6-13.3,3-22.9,8.5-30.4,20.3-5.9,9.2-10.4,21.8-7.9,32.8,1.5,6.7,5.6,12.3,11.4,15.9,6.9,4.3,15.4,5.8,23.4,5h0Z"/>
  <path class="cls-1" d="M641.1,282.5c4.5-.9,34.6.3,41.4.6.9,3.7-2.4,11.5-3.5,15.2l-12.4,42.4c-2.4,8.1-5.5,16.7-6.5,25.1-.3,2.8-.4,5.7,1.1,8.2,1.8,3.1,5.9,5.4,9.3,6.3,9,2.4,20.2-1.2,27.9-5.7,7.1-4.1,13.4-10,17.7-17.1,7.1-11.9,17.3-53.5,21.7-69.1.4-1.3.9-2.8,2.1-3.4,4-2.1,35.1-1.3,39.8.4,0,.4.1.9.2,1.3.2,3.8-6.7,26.8-9.1,29.6.1.4.2.9.2,1.3-.1,4.8-8.6,30.6-10.4,36.8-4.1,14.2-7.5,29-12.3,43-.6,1.8-1.2,3.3-2.6,4.7h-38.5c2-3.7,4.5-10.9,4.4-15.1-.2.2-.2.3-.4.5-1.8,1.5-4.7,2.7-6.8,3.9-1,.6-2,1.1-3,1.7s-2,1.1-3.1,1.6c-1,.5-2.1,1-3.1,1.4-1,.5-2.1.9-3.2,1.3-1.1.4-2.1.8-3.2,1.2-1.1.4-2.2.7-3.3,1.1-1.1.3-2.2.6-3.3.9s-2.2.6-3.3.8c-1.1.2-2.2.5-3.4.7-1.1.2-2.3.4-3.4.5-1.1.2-2.3.3-3.4.4-1.1.1-2.3.2-3.4.3-1.1,0-2.3.1-3.4.1h-3.4c-1.1,0-2.3,0-3.4-.1s-2.3-.1-3.4-.3c-10.4-1-21-3.9-27.9-12.3-3.7-4.5-5.6-10-5.9-15.7-.7-15.2,13.4-56.6,18.3-73.2,1.8-6.1,4.4-13,5-19.3v-.2l-.1.2Z"/>
  <path class="cls-1" d="M1168,280.6c1.3-.1,2.6-.2,3.9-.2,21.2-.8,47.7.2,63.9,15.4,3.9,3.6,9.5,10.4,9.7,15.9-4,2.5-32.2,5-38.5,5.8,0-2-2.1-4.8-3.5-6.1-6.9-6.9-19.9-9.1-29.2-9-6.5,0-15.3,1-20.1,6-1.3,1.4-2.5,3.3-2.4,5.2.2,3,3.2,5.2,5.6,6.5,9.3,4.9,34.5,9.2,46.6,13.5,8.2,2.9,16.1,6.8,22.6,12.7,5.1,4.6,7.4,10.2,7.6,17,.3,8.1-2.7,15.4-8.2,21.3-15.5,16.6-39.8,19.1-61.1,19.8l-11.1-.8c-22-1.6-43.7-6.3-58.8-23.9-3.1-3.6-4.1-8.9-7.1-12.2l-.2-.2c11.5-2.1,24-3.6,35.7-4.2,8.9-.4,8.6,5.3,14.1,10.3,7.7,6.8,21.2,8.3,31,7.6,6.6-.4,16.6-2.3,21.1-7.7,1.3-1.5,2.4-3.6,2.2-5.7-.3-2.6-2.6-4.3-4.7-5.4-17.4-9.7-48.4-10.9-64.6-24.1-5.4-4.4-9.1-10.2-9.8-17.2-.7-7.3,1.2-14.7,5.8-20.4,11.5-14.1,32.1-18.2,49.2-20l.3.1Z"/>
  <path class="cls-2" d="M231.9,219.6c58.1.7,116.3.3,174.5.2h51.9c10.9,0,22-.4,33,.4-2.9,4-4.9,8.5-7.6,12.7l-19.3,30.1-56,86.6c-5.8,4.8-12.5,21-20.6,28.3-.2,1-.4,1.9-.7,2.8-4.3,12.2-21.2,35.4-28.8,47.5l-31.6,49.1c-4.7,7.3-9,15-14.1,22-1.6,2.2-3.5,4.5-6,5.7-1.4-.4-2-1.4-2.8-2.5-6-8.2-11.3-17.5-16.9-26l-45.1-70.4-58.4-90.6c-20.7-31.8-41.9-63.3-61.7-95.8,23.5.3,47,0,70.5,0,13.1,0,26.7.8,39.8,0l-.1-.1Z"/>
  <path class="cls-1" d="M387.8,377.9c-15.5,11.8-32.7,21.2-52,24.7-25.6,4.6-61.1,2-82.8-13.1-13.3-9.2-21.8-21.9-24.6-37.8-4.3-24.3.9-51.4,15.2-71.6,15.5-22,41.4-37.2,68-41.8,26.7-4.6,60.1-3.2,82.8,12.9,14.1,10,21.4,22.4,24.2,39.2-13.6,1.4-27.6,2-41.2,2.3-2.2-8.6-6.1-16-13.6-21-11.7-7.7-29.3-7.6-42.5-4.8-16.5,3.5-30.4,13.8-39.5,27.8-9.3,14.4-15.2,35-11.4,52.1,2.1,9.4,7.7,17.2,15.8,22.4,11.5,7.3,26.5,8.7,39.6,5.7,18.9-4.3,28.2-15.4,38.1-31,14.9,1.6,29.8,3.9,44.6,5.6-5.8,4.8-12.5,21-20.6,28.3l-.1.1Z"/>
  <path class="cls-1" d="M0,28.9c33.2.7,352.1-.2,352.4,0,.6,2.7-2.1,6.5-3.5,8.8l-98.8,154.2c-2.9,4.6-17.6,24.8-18.2,27.8-13,.9-26.7,0-39.8,0-23.5,0-47,.3-70.5,0-3.5-4.7-6.3-10.1-9.5-15-7.9-12-15.7-24.2-23.3-36.4-15.5-24.6-31.7-48.7-47.2-73.3-8.1-12.8-16.2-25.5-24.5-38.1C11.4,48.1,6.1,39.2,0,30.8v-1.9Z"/>
  <path class="cls-1" d="M1146.9,141.7c4.4,3,6.7,10.7,13.8,14.8,11.3,6.5,29.1,7.3,41.5,4,4.8-1.3,11.2-3.7,13.7-8.3.9-1.6,1.1-3.4.5-5.2-1.1-3.5-4.6-5.8-7.8-7.3-5.7-2.7-12.6-4.1-18.7-5.8-14.8-4.1-29.8-7.9-43.5-14.9-7.4-3.8-14.6-9.6-17.2-17.9-2.4-7.7-.9-17.4,2.8-24.5,6.4-12.1,19.9-19.2,32.5-23.1,24.5-7.4,69.1-7.9,92,4.5,8.3,4.5,18.8,13.9,21.5,23.2.1.4.6.7,1,1v2.5c-3.2,2.8-37.6,5.8-44.2,6q0-.4-.1-.8c-1.7-4.9-8.1-8.9-12.6-10.9-11.4-5.2-28.6-6.5-40.5-2-3.1,1.2-6.4,3.1-7.8,6.3-.7,1.6-.9,3.4-.2,5.1.9,2,2.4,3.6,4.3,4.6,6.2,3.3,14.2,4.7,21,6.5,14,3.6,28.6,6.8,41.9,12.3,9.3,3.8,19.1,10.6,23.1,20.2,3,7.4,2.4,17.4-.7,24.6-5,11.9-17.2,20.4-28.8,25.1-27.7,11.2-74.2,10.1-101.7-1.8-12-5.2-26.1-16.4-30.8-29-.7-1.8-.5-2.9.3-4.5,1.8-1.4,39.5-4.4,44.6-4.6l.1-.1Z"/>
  <polygon class="cls-1" points="614.2 187.6 652.8 54.4 700.6 55.1 662.5 187.6 614.2 187.6"/>
  <polygon class="cls-1" points="705.2 37.5 658 36.6 667.2 3.7 715.8 4.3 705.2 37.5"/>
  <path class="cls-1" d="M684.6,282.2c-7.5,22.6-19,61.8-24.5,83.3s26.9,18.1,40.7,10c26.3-15.3,31.7-62.9,38.4-90.3h42.5l-33.8,117.6-40.1-.6,5.5-14.2c-20.3,10-37.3,17.3-60.9,15.3-66-5.6-17.8-82.4-10.5-121.2h42.5l.2.1Z"/>
  <path class="cls-1" d="M898.1,91.1c-.6,4.6-1.8,10-3.3,15.8h0l-24.2,78.7-41.3-.4h-3.8l.7-2.4,16.6-60.3c1.6-5.3,3.2-10.5,4.5-15.7.2-.9.5-1.8.7-2.9v-.4c1.5-5.9,3.4-14.1,2.1-18.2-2.6-8.2-10.7-10.7-19.2-10.5-6.5.1-13.2,1.8-17.8,3.6-16.3,6.4-25,17.5-32.1,33.2-10.5,23.3-15.9,49.3-22.5,73.2h-3.8l-9.2-.2-32.2-.4.2-.7,37-132.1h42.5c1.9,2.4-5.5,13.4-1.1,14.6.4.1,1.2-.2,2.5-.8h.1c10.5-4,20.1-10.4,31.2-13.2h0c7.3-1.7,15-2.7,22.6-2.8h6c1.4,0,2.8.2,4.2.3,22.8,2.2,43.1,13.6,39.4,41.6h.2Z"/>
  <path class="cls-1" d="M1070.9,185.5l-43.3-.5-6.3-13.9c-3.2,3.1-7.8,6.3-11.7,8.3-19.5,9.7-48,11.9-67.1.5-23-13.7-24.2-45.2-3.1-61.2,18.4-14,59.8-13.6,83.2-16.4,3.5-.4,7.2.4,10.7-.4,10.1-2.2,11.1-18,3.1-23.4-6.8-4.6-23.9-4.6-31.9-2.8s-12.1,8.6-16.7,14.7c-14.5-1.1-28.2-2.1-46.5-3.8,4.6-13.3,22.6-26,35.5-31.1,26.2-10.4,83.1-11.6,102.9,11.7,16.2,19.1-3.9,58.2-8.9,80.2-1.5,6.4-3.8,18.5-2.9,24.7.6,4.4,4,8.6,3.1,13.5l-.1-.1ZM1031.3,123.1c-7.5.6-15,2.2-22.5,3.2s-15.6,1.1-23.7,3.5-16.2,6.1-16.7,14.3c-1.3,21.5,30.2,18.4,43.4,11.8,13.2-6.6,19.1-19.8,19.4-32.9l.1.1Z"/>
  <path class="cls-1" d="M858.3,285.6c4.6,1.4-3.8,16.3-2.8,20.3,1.2,1.3,15.5-11.2,18.1-12.9,12.9-8,26.8-10.3,41.7-6.9s4.6,1.1,4.3,3.2l-14.6,22.7c-13.7,1.1-22.7-1.9-34.9,5.7-28.7,17.9-35.1,57.9-41.8,86.7l-39.5-1.2,33-114.6c.4-.8,2.1-3.1,2.6-3.1h33.8l.1.1Z"/>
</svg>