<?xml version="1.0" encoding="UTF-8"?>
<svg id="Camada_1" xmlns="http://www.w3.org/2000/svg" version="1.1" viewBox="0 0 1920 1080">
  <!-- Generator: Adobe Illustrator 29.1.0, SVG Export Plug-In . SVG Version: 2.1.0 Build 142)  -->
  <defs>
    <style>
      .st0 {
        fill: #4cc9f0;
        stroke: #fff;
        stroke-miterlimit: 10;
        stroke-width: 2px;
      }
    </style>
  </defs>
  <path class="st0" d="M1116.5,589c-13.7,10.3-26.9,25-39.3,36.6-38.7,36.2-78.7,71.5-119.1,105.6-84.5,4.6-171.6-.7-255.5,11.8-40.4,6-62.2,19.1-98.6,32.3-47,17-102,25.5-151.5,32.9-44.3,6.6-88.9,11.9-133.5,15.4-.5-2,.7-2.1,1.8-3.1,3.3-2.9,8.5-5.5,12.3-8.5,62.3-48.7,125.9-95.9,188.8-144,82.4-62.9,163.5-128,246.8-189.7,12.1-9,22.8-18.5,38-22,1.5-.3,5.6-1.6,5.6.7v.5l-21.7,98.6c36.7,7.3,74.5,8.3,111.6,12.9l4-2.4,29.3-129.7,25.2-6.2-30.6,137c0,6.9,13,4.1,18,7l2.3-1c13.4-47.4,21-96.9,33-144.9.3-1.1-.4-3.4,1.8-2.5,1.9.8,13.2,25.5,15.3,29.5,22.5,43,46.2,85.4,68.6,128.4,6.2,5.6,32.8,3.7,41.7,4.6,1.4.2,3.1,0,5,0h1l-.3.2Z"/>
  <path class="st0" d="M639.7,317.4c.3,1.6-1.9,1.5-3,1.8-61.7,17.9-122.5,34-182.4,57.6-25.9,10.2-96.1,38.8-106.3,65-9.6,24.9,19.6,37.7,38.6,43,40.5,11.3,89.9,8.1,131.5,6,76.8-3.9,154-13.6,229.4-27,1.9-.3,3.8-.3,5.7-.3.4,1.9-1,2.7-2.2,3.8-2.7,2.7-7.7,6-11,8.6-36,28.3-74.3,57-111.3,84-8.2,6-21.6,17.4-31.1,19.1-17.4,3-39.7,3-57.7,4.5-70.7,6-142,10.5-212.8,2.2-59-7-135.7-36.8-86.6-108.3,51.5-75.1,194.1-112.7,278.9-133.5s73-18.2,108.2-24.9,8-1.5,12-1.6h0Z"/>
  <path class="st0" d="M300.4,609.8c-1.5,2.3-5.9,3.2-8.5,4-52.2,17.2-142.3,38.1-184,72.4-40,32.8,5.6,49.3,36.2,53.2,69.2,9,160.5-4.5,230-14s22.1-4.5,33.3-5.4c0,2.8-3.6,4.3-5.6,5.9-35.2,27.5-71.8,53.8-107.9,79.7-60.7,8.3-127.9,14.4-189.3,10.4-27.7-1.8-99.4-9.5-104.1-45.4-5.1-39.4,34.5-69.3,64.6-86.8,70.4-41.1,156.9-55.2,235.3-74h0Z"/>
  <path class="st0" d="M1217,337.6l-17.5,2.6c-10.7-25.1-45.9-40-94.5-49.2-5.1-.6-10.3-1.2-15.4-1.9-40.2-5.4-81-7.5-121.4-12l-33.4,149.4-115.7,21.6c-2.6-.4-.6-7.7-.2-9.9,6.3-37.7,17.2-77.7,25.6-115.2,3.9-17.3,6.4-35.2,10.9-52.4.7-2.8,3.4-13.5,5.4-14.2l51.1,5.3c26.6,2.8,53.1,5.8,79.6,8.8,36,2.4,70.4,5.4,101.2,10.2,18.8,2.2,37.4,5.2,55.6,10.8,6.5,2,13.8,4.9,21.3,8.6,22.4,9.3,39,21.4,47.4,37.6h0Z"/>
  <path class="st0" d="M1389.3,391.6h10.3c29.6.5,66.7-4.8,92.6,11.1,18,11,24.6,28.4,19,49.1s-16.7,24.2-31.3,29.8c8.8,6.7,18.5,9,26.1,17.5,12.6,13.9,14.6,31.3,8.5,48.8-9.1,25.7-34.4,32.4-59.1,33.6-16,.8-47.3,2-62.3,0-5.8-.8-3.8-2.3-3.8-5v-184.9h0ZM1484.9,468.6c11.7-12.8,12.1-42.7,1.9-56.3-14.8-19.7-42.7-14.9-64.3-15.3-3.2,0-4.9,0-9.1.1v83.7c1.2,1.8,19.9,1.4,23.4,1.3,16.4-.5,36.4-.7,48.1-13.5h0ZM1414.6,575.8c1.2,1.8,22.7,1.4,26.6,1.3,24.3-.8,48.5-3.4,53.7-31.4,4.2-23.1-.4-47.5-24.5-56.7-10-3.8-33.2-3.1-44.5-2.5s-10.9.4-12,2.2l.7,87.1h0Z"/>
  <path class="st0" d="M1146.8,594.8c19.7-2.3,45.2-.4,60.8,12.8s8.7,8.2,8.3,16.9c-1.4,29.9-53.3,32.5-62.8,8.1-2-5.1-1.2-14.1-9.1-12.4-5.7,1.3-7.1,8.3-13.7,4.6-8.5-4.8,7.9-12.2,13.8-11.6,11.6,1.2,20.1,21.5,35.6,11.1s2.9-19-8.7-22.8c-26-8.4-57.9,4.7-67,31.1-20.8,60.2,56.6,94.2,102.9,68,3.3-1.9,11.8-10,14.7-9.1,15.4,27.4-19.8,40-41.3,41.5-54.1,3.6-105.3-13.4-99.9-77s36-57.8,66.3-61.3h0Z"/>
  <path class="st0" d="M1165.3,405.9c-41.1,18.5-92.5,11-136,8.5-.4-1.9.5-2.2,1.9-3,6.9-4.1,18.9-7.5,26.7-11.5,40.2-20.1,58.1-42.9,105.4-53.9,4.3-1,33.7-6.8,35-5.6,5.6,28.2-6.8,53.7-33,65.5Z"/>
  <path class="st0" d="M1698.9,627.5c44.4-4.5,90.2,23.2,70.6,72.8-12.3,31.2-40.8,34.1-70.9,31.6-65.5-5.3-72.2-97,.3-104.4h0ZM1705.5,634.1c-44.3,4.8-41,67.5,3,67.4,25.1,0,45.9-17.8,37.3-44-5.6-16.9-23.2-25.3-40.3-23.4Z"/>
  <path class="st0" d="M1823.3,630.8c25-1.3,53.4-.9,78.3,1.8s2.5,2.2,3.3,3.3l-.8,9.1c-1.2,3.7-11.2,1.3-14.2.4-4.8-1.5-8.6-5.7-13.4-6.3-7.2-.9-32.4-1-39.2,0-15.5,2.6,1.5,13.5,7.7,16.1,24,10.3,70,11.3,69.2,46.6-.5,24.8-24.8,30.4-45.4,30h-9.2c-18.9-.2-48-1.1-68.2-12s.4-16.8,5.8-24.8c4.6-6.7,2.4-11.9,13.8-10.1,4.6.7,9.2,5.2,12,8.7,6.3,8.1,3.6,12.5,16.6,14s37,.2,40.4-10.8c1-3.3,0-4.6-1.7-7.1-8.2-11.3-45.7-21.3-59.7-27.6-4.8-2.2-22.8-11.1-23.9-15.4s4.7-9.9,7.3-11.4c4-2.3,16-4.4,21.5-4.7l-.2.2Z"/>
  <path class="st0" d="M1290.9,628.6c40.8-3.8,80.7,15.2,71.9,62.1-7.8,41.5-42.3,44-77.8,41.2-40.8-3.2-62.1-56.9-34.4-86.8,9.1-9.8,27-15.3,40.2-16.6h.1ZM1298.5,635.1c-47,3.7-44.8,71.7,6.2,67.4,48.4-4.1,41.1-71-6.2-67.4Z"/>
  <path class="st0" d="M1422,698.7c3.2,22.9,37.1,15.5,48.5,3.8-.4-17.9,2.5-39.6.4-57.2-.2-1.3-.7-4.4-1.6-5.1l-11.9-3.2,1.1-3.3h53.5l1.5,2.5-1.1,2.8-9.9,1.2c-4.4,2.4-4.1,23.6-4.1,28.4,0,10.8-1.6,43.2,3.2,50.8,2.5,4.1,14.4,5.7,14,9.8-.4,4.6-14.1,2.6-17.2,2.7s-6.1,0-9.2,0c-10.7.2-21.5-.2-32.2,0-3.5-3.5,17.5-13.1,14.2-19.6-3-3.1-32.6,18.3-39,19.4-15.5,2.6-36.5-3.1-38.5-21-2.4-21.9-.4-44.5-1.1-66.5-1.1-5.8-9.7-4.2-11.5-7.1l1.1-3.3h38.2l1.6,1.6v63.3h0Z"/>
  <path class="st0" d="M1362.1,541.6c0,33.2-25.3,44.3-56.3,42-32.4-2.4-47.2-21.1-46.4-51.8.6-20.1.9-40.4,1-60.6,0-19.9.2-39.7.2-59.5v-20.1h21.3c1.6,1,1.7,2.2,1.7,3.8v71.2c-.2,21.4-.9,81.1,5.4,93.9,9.3,19,38.8,16.9,56.4,6.9,4.1-2.3,10.6-15.3,10.3-21.3v-153.8l1.1-1.1c2.8-1.8,5.7,1.5,5.5,4.3,1,48.6,0,98.8,0,146.3l-.2-.2Z"/>
  <path class="st0" d="M1860.4,389.7c21.3-2.6,43.2,5.7,51.5,26.4l-2.7,1.7c-3.2-4.4-8.2-9.4-12.7-12.5-38.9-26.5-79.9,15.7-41.9,49.5,33.4,29.7,69.5,28.9,64.9,86.8-3.7,46.7-71.1,54.3-94.3,19-2.6-4-10-17.1-3.4-19.6,5.1,9.5,9.8,19.5,18.6,26.2,19.5,14.8,51.5,7.5,57.8-17.4,15.9-62.6-84.7-57.2-78-123.8,1.9-19,22.1-34.1,40.1-36.3h0Z"/>
  <path class="st0" d="M1583.5,633.8c1.8,6.9-15.3,4.8-11.5,12,2,3.9,10,.6,13.3-.9,8.8-3.8,13.5-12.4,23.8-12.3,17.6.2,29.8,10.4,21.8,28.5-5.4,12.3-20.2,16.6-32.2,18.5,4.3-6.9,6.3-13.5,6.1-20.6s-3-6.5-6.5-6.8c-9.2-.7-24.4,1.3-26.3,5.6l-.5,56.1c-.2,11.1,17.9,4.1,10.3,17h-51.3l-1.6-2.7c3.5-6,12.9-5.5,13.1-13.1.8-19.9,1.3-39.1,0-58.9s1.1-13.5-1-15.3-8.1-1.4-8.8-5.4,4.2-1.7,4.9-1.7h46.4,0Z"/>
  <path class="st0" d="M1403,329.4c-5.1,4.4-11.1,9-15.9,13.6-26.7,25.5-57.5,55.9-86.2,78.6-1.3,1-6.3,5.5-8.8,6.1v-47.9h-42.6v87c-27.2,27.9-55.8,54.2-86.2,78.6h0l-60-112.9c-.3-2.2,0-1.4,1.6-1.6,6.5-.9,14.8.5,21.7-.1,15.3-1.3,40.3-8.6,53.8-16,29.7-16.5,42.5-43.2,36.5-77l2.2-.4,1-.2,181.7-10.8,1.1,3.2v-.2Z"/>
  <polygon class="st0" points="1656.7 582.5 1656.7 386.1 1788.6 537.8 1788.6 389.5 1792.8 390.6 1793 582.5 1664.3 423.2 1664.3 582.7 1656.7 582.5"/>
  <polygon class="st0" points="1544.7 580.4 1544.7 390.7 1628.4 391.6 1628.4 397.5 1566.9 398.7 1566.9 480.5 1627.2 480.5 1627.2 485.5 1567.9 485.5 1567.9 575.9 1628.4 575.9 1628.4 580.3 1544.7 580.4"/>
  <polygon class="st0" points="1166.7 555.2 1180.9 584.7 1132.9 586.9 1166.7 555.2"/>
  <polygon class="st0" points="1000.9 413.4 964.9 411.2 963.8 418.8 1000.9 413.4"/>
</svg>